<svg width="45" height="33" viewBox="0 0 45 33" fill="none" xmlns="http://www.w3.org/2000/svg">
<path d="M26.49 12.08V9.67999C27.59 9.20999 28.72 8.86 29.87 8.63C31.02 8.4 32.23 8.28 33.49 8.28C34.36 8.28 35.21 8.35 36.04 8.48C36.87 8.61 37.69 8.78 38.49 8.98V11.18C37.69 10.88 36.88 10.66 36.07 10.51C35.25 10.36 34.39 10.28 33.49 10.28C32.22 10.28 31.01 10.44 29.84 10.75C28.67 11.06 27.56 11.51 26.49 12.08ZM26.49 23.08V20.63C27.59 20.16 28.72 19.82 29.87 19.61C31.02 19.39 32.23 19.29 33.49 19.29C34.36 19.29 35.21 19.36 36.04 19.49C36.87 19.62 37.69 19.79 38.49 19.99V22.19C37.69 21.89 36.88 21.67 36.07 21.52C35.25 21.37 34.39 21.29 33.49 21.29C32.22 21.29 31.01 21.44 29.84 21.74C28.67 22.04 27.56 22.48 26.49 23.08ZM26.49 17.58V15.18C27.59 14.71 28.72 14.36 29.87 14.13C31.02 13.9 32.23 13.78 33.49 13.78C34.36 13.78 35.21 13.85 36.04 13.98C36.87 14.11 37.69 14.28 38.49 14.48V16.68C37.69 16.38 36.88 16.16 36.07 16.01C35.25 15.86 34.39 15.78 33.49 15.78C32.22 15.78 31.01 15.94 29.84 16.25C28.67 16.56 27.56 17.01 26.49 17.58ZM10.89 25.78C12.69 25.78 14.43 25.99 16.12 26.4C17.8 26.82 19.46 27.44 21.1 28.28V6.92999C19.6 5.92999 17.98 5.16 16.22 4.61C14.46 4.06 12.7 3.78999 10.89 3.78999C9.61998 3.78999 8.37998 3.94999 7.16998 4.25999C5.94998 4.57999 4.72996 4.97 3.48996 5.44V27.14C4.51996 26.67 5.69998 26.33 7.00998 26.12C8.32998 25.89 9.61998 25.78 10.89 25.78ZM24.09 28.28C25.76 27.45 27.39 26.82 28.99 26.4C30.59 25.98 32.29 25.78 34.09 25.78C35.36 25.78 36.67 25.88 38.01 26.08C39.36 26.28 40.52 26.55 41.49 26.88V5.42999C40.36 4.85999 39.16 4.44999 37.89 4.17999C36.62 3.90999 35.36 3.78 34.09 3.78C32.29 3.78 30.55 4.05001 28.86 4.60001C27.18 5.15001 25.59 5.92 24.09 6.92V28.28ZM22.59 32.78C20.89 31.51 19.04 30.54 17.04 29.85C15.04 29.16 12.99 28.83 10.89 28.83C9.65998 28.83 8.45998 28.98 7.28998 29.28C6.11998 29.58 4.95998 29.95 3.78998 30.38C3.01998 30.75 2.27997 30.7 1.55997 30.23C0.839967 29.76 0.47998 29.1 0.47998 28.23V5.08C0.47998 4.58 0.599956 4.12 0.829956 3.7C1.05996 3.28 1.40997 2.96 1.87997 2.72C3.27997 2.05 4.73998 1.56001 6.25998 1.24001C7.77998 0.920006 9.31997 0.770004 10.88 0.770004C12.98 0.770004 15.02 1.05 17 1.62C18.98 2.19 20.84 3.05 22.58 4.22C24.28 3.05 26.1 2.19 28.06 1.62C30.01 1.05 32.02 0.770004 34.08 0.770004C35.65 0.770004 37.18 0.930005 38.68 1.24001C40.18 1.56001 41.63 2.05 43.03 2.72C43.5 2.95 43.85 3.28 44.1 3.7C44.35 4.12 44.48 4.58 44.48 5.08V28.23C44.48 29.16 44.1 29.87 43.36 30.35C42.61 30.83 41.87 30.84 41.14 30.38C40.01 29.91 38.86 29.54 37.69 29.26C36.52 28.98 35.32 28.83 34.09 28.83C31.99 28.83 29.97 29.18 28.04 29.88C26.11 30.58 24.29 31.55 22.59 32.78Z" fill="#FF800C"/>
</svg>
