<svg width="30" height="35" viewBox="0 0 30 35" fill="none" xmlns="http://www.w3.org/2000/svg">
<path d="M22.09 27.16C22.37 28.15 22.65 29.14 22.95 30.18C22.8 30.19 22.69 30.2 22.58 30.2C16.32 30.2 10.07 30.2 3.80999 30.2C2.03999 30.2 0.709986 29.19 0.309986 27.56C0.249986 27.3 0.210011 27.04 0.210011 26.77C0.210011 19.01 0.200011 11.25 0.210011 3.48999C0.210011 1.80999 1.67996 0.290012 3.34996 0.200012C3.53996 0.190012 3.72997 0.179993 3.91997 0.179993C11.37 0.179993 18.82 0.189983 26.27 0.169983C27.68 0.169983 28.77 0.690024 29.5 1.90002C29.86 2.50002 29.98 3.15999 29.98 3.85999C29.98 10.19 29.98 16.52 29.98 22.85C29.98 26.47 29.98 30.1 29.98 33.72C29.98 33.85 29.98 33.98 29.98 34.1C29.96 34.12 29.93 34.14 29.91 34.16C27.32 31.82 24.74 29.47 22.15 27.13C22.13 27.14 22.11 27.15 22.09 27.16ZM12.65 8.33002C12.65 8.29002 12.66 8.24001 12.66 8.20001C12.51 8.15001 12.35 8.06001 12.21 8.07001C10.62 8.22001 9.16999 8.77997 7.87999 9.71997C7.73999 9.81997 7.59997 9.97 7.53997 10.12C7.04997 11.35 6.51997 12.57 6.10997 13.83C5.52997 15.61 5.25999 17.45 5.18999 19.32C5.17999 19.67 5.24 20 5.51 20.25C5.8 20.52 6.05997 20.82 6.35997 21.06C7.48997 21.97 8.81998 22.34 10.24 22.44C10.33 22.45 10.45 22.42 10.5 22.36C10.87 21.93 11.23 21.48 11.62 21C10.5 20.61 9.52002 20.1 8.78002 19.18C13.1 21.52 17.39 21.61 21.76 19.15C20.94 20.13 19.93 20.65 18.78 21.02C19.08 21.39 19.37 21.7 19.6 22.05C19.81 22.37 20.05 22.5 20.43 22.4C20.62 22.35 20.83 22.36 21.03 22.32C22.64 22.04 24.01 21.34 25.03 20.03C25.11 19.92 25.18 19.76 25.17 19.63C25.14 18.93 25.1 18.23 25.03 17.53C24.75 14.9 23.98 12.41 22.82 10.04C22.76 9.90998 22.65 9.80002 22.53 9.71002C21.23 8.78002 19.8 8.20998 18.2 8.03998C17.94 8.00998 17.78 8.09003 17.68 8.34003C18.35 8.61003 19.02 8.84997 19.66 9.15997C20.29 9.45997 20.89 9.82998 21.5 10.17C21.48 10.19 21.47 10.22 21.45 10.24C17.16 8.22999 12.87 8.30998 8.58001 10.23C9.82001 9.34998 11.19 8.75002 12.65 8.33002Z" fill="#FF800C"/>
</svg>
