<svg width="35" height="35" viewBox="0 0 35 35" fill="none" xmlns="http://www.w3.org/2000/svg">
<path d="M0.209961 17.09C0.209961 13.64 0.209961 10.18 0.209961 6.72997C0.209961 5.15997 0.659984 3.75997 1.63998 2.53997C2.76998 1.13997 4.23997 0.350004 6.02997 0.140004C6.29997 0.110004 6.56997 0.0999645 6.83997 0.0999645C13.75 0.0999645 20.66 0.0899645 27.57 0.0999645C30.12 0.0999645 32.07 1.22997 33.37 3.41997C33.96 4.41997 34.21 5.51997 34.21 6.66997C34.21 13.61 34.2 20.56 34.21 27.5C34.21 30.48 32.28 33.01 29.54 33.82C28.91 34 28.27 34.09 27.61 34.09C20.68 34.09 13.75 34.11 6.81998 34.08C3.99998 34.07 1.96998 32.72 0.759979 30.17C0.349979 29.31 0.209971 28.39 0.219971 27.44C0.219971 23.98 0.209961 20.53 0.209961 17.09ZM25.8 13.62C26.6 15.62 26.75 17.63 26.13 19.68C25.52 21.72 24.34 23.36 22.62 24.62C19.55 26.86 15.48 26.98 12.25 24.93C10.63 23.9 9.42998 22.5 8.66998 20.74C7.64998 18.39 7.65996 16.01 8.60995 13.63C6.91995 13.63 5.23997 13.63 3.55997 13.63C3.55997 13.7 3.55997 13.76 3.55997 13.81C3.55997 18.37 3.55997 22.93 3.55997 27.49C3.55997 29.29 4.98998 30.72 6.78998 30.72C13.73 30.72 20.67 30.72 27.62 30.72C29.42 30.72 30.85 29.29 30.85 27.49C30.85 22.92 30.85 18.36 30.85 13.79C30.85 13.73 30.85 13.67 30.85 13.61C29.16 13.62 27.49 13.62 25.8 13.62ZM17.21 23.03C20.47 23.03 23.16 20.34 23.15 17.08C23.14 13.91 20.58 11.15 17.2 11.15C13.88 11.15 11.28 13.87 11.26 17.07C11.24 20.34 13.95 23.04 17.21 23.03ZM30.26 9.82C30.26 7.87 30.26 5.95997 30.26 4.03997C28.33 4.03997 26.41 4.03997 24.47 4.03997C24.47 4.11997 24.47 4.17999 24.47 4.24999C24.47 6.02999 24.47 7.81002 24.47 9.59002C24.47 9.82001 24.47 9.82 24.7 9.82C26.48 9.82 28.26 9.82 30.04 9.82C30.12 9.82 30.18 9.82 30.26 9.82Z" fill="#FF800C"/>
</svg>
