<svg width="43" height="34" viewBox="0 0 43 34" fill="none" xmlns="http://www.w3.org/2000/svg">
<path d="M15.8499 34C14.3299 34 12.8099 34 11.2899 34C11.2399 33.99 11.19 33.97 11.14 33.96C10.89 33.93 10.6299 33.91 10.3699 33.88C9.22993 33.72 8.10994 33.51 6.99994 33.2C4.88994 32.61 2.89993 31.76 1.01993 30.65C0.819928 30.53 0.629932 30.41 0.429932 30.29C2.69993 30.51 4.91994 30.33 7.09995 29.71C9.26995 29.09 11.2499 28.09 13.0199 26.68C11.1999 26.6 9.54994 26.05 8.09995 24.97C6.63995 23.89 5.62995 22.48 5.03995 20.74C5.48995 20.78 5.90993 20.84 6.32993 20.85C6.75993 20.86 7.18993 20.83 7.61993 20.8C8.13993 20.77 8.73993 20.62 8.83994 20.52C6.84994 20.08 5.18994 19.08 3.90994 17.49C2.62994 15.9 2.01995 14.08 2.00995 12.02C2.62995 12.36 3.24995 12.61 3.88995 12.78C4.52995 12.96 5.18992 13.06 5.85992 13.06C4.03992 11.75 2.80994 10.04 2.30994 7.84998C1.79994 5.65998 2.12994 3.57999 3.21994 1.60999C7.88994 7.09999 13.78 10.1 20.9799 10.6C20.9599 10.5 20.9499 10.44 20.9399 10.38C20.7099 9.26 20.6899 8.13001 20.9099 7.01001C21.2999 4.99001 22.2899 3.30999 23.8799 1.98999C25.1099 0.96999 26.5199 0.339985 28.1099 0.109985C28.4299 0.0599854 28.7499 0.04 29.0599 0C29.2599 0 29.4599 0 29.6599 0C29.7499 0.01 29.83 0.029978 29.92 0.039978C30.19 0.069978 30.4599 0.0799951 30.7199 0.119995C32.5799 0.429995 34.1899 1.25999 35.5099 2.60999C35.5999 2.69999 35.6799 2.73001 35.7999 2.70001C37.2899 2.38001 38.7199 1.89001 40.0799 1.20001C40.3999 1.03001 40.7199 0.859983 41.0799 0.669983C40.3799 2.69998 39.1299 4.24 37.3599 5.37C39.0399 5.18 40.6399 4.75001 42.2099 4.07001C42.1599 4.15001 42.1299 4.19999 42.0999 4.23999C41.0199 5.79999 39.7299 7.15003 38.2 8.28003C38.01 8.42003 37.94 8.56999 37.95 8.79999C38.02 10.47 37.8899 12.14 37.5899 13.78C37.0799 16.56 36.1499 19.19 34.7799 21.67C33.3199 24.3 31.47 26.6 29.17 28.54C26.34 30.93 23.1099 32.55 19.4999 33.38C18.5499 33.6 17.5899 33.72 16.6299 33.88C16.3899 33.93 16.1199 33.96 15.8499 34Z" fill="#FF800C"/>
</svg>
